<svg width="28" height="28" viewBox="0 0 28 28" fill="none" xmlns="http://www.w3.org/2000/svg">
<mask id="mask0" mask-type="alpha" maskUnits="userSpaceOnUse" x="6" y="6" width="16" height="16">
<path d="M21.3501 6.66174C21.1321 6.44328 20.8362 6.3205 20.5276 6.3205C20.219 6.3205 19.9231 6.44328 19.7051 6.66174L14.0001 12.3551L8.29509 6.65007C8.07712 6.43161 7.78119 6.30884 7.47259 6.30884C7.16398 6.30884 6.86806 6.43161 6.65009 6.65007C6.19509 7.10507 6.19509 7.84007 6.65009 8.29507L12.3551 14.0001L6.65009 19.7051C6.19509 20.1601 6.19509 20.8951 6.65009 21.3501C7.10509 21.8051 7.84009 21.8051 8.29509 21.3501L14.0001 15.6451L19.7051 21.3501C20.1601 21.8051 20.8951 21.8051 21.3501 21.3501C21.8051 20.8951 21.8051 20.1601 21.3501 19.7051L15.6451 14.0001L21.3501 8.29507C21.7934 7.85174 21.7934 7.10507 21.3501 6.66174Z" fill="black"/>
</mask>
<g mask="url(#mask0)">
<rect width="28" height="28" fill="white"/>
</g>
</svg>
