<svg width="56" height="56" viewBox="0 0 56 56" fill="none" xmlns="http://www.w3.org/2000/svg">
<path fill-rule="evenodd" clip-rule="evenodd" d="M25.5054 0C24.5636 0 23.8 0.76351 23.8 1.70535C23.8 2.5383 23.1967 3.24314 22.3845 3.42798C21.7723 3.5673 21.1686 3.72892 20.5742 3.91193C19.7792 4.15674 18.9056 3.84798 18.4896 3.12752C18.0189 2.31222 16.9764 2.03287 16.1611 2.50359L11.8424 4.99699C11.0252 5.4688 10.7452 6.51376 11.217 7.33096C11.6337 8.05268 11.4644 8.96522 10.8538 9.53239C10.3973 9.95646 9.9565 10.3972 9.53243 10.8538C8.96526 11.4644 8.05272 11.6337 7.33099 11.217C6.51378 10.7452 5.46883 11.0252 4.99701 11.8424L2.50362 16.161C2.0329 16.9764 2.31224 18.0189 3.12755 18.4896C3.84802 18.9056 4.15678 19.7791 3.91196 20.5742C3.72896 21.1685 3.56735 21.7722 3.42803 22.3844C3.24319 23.1966 2.53833 23.8 1.70537 23.8C0.763521 23.8 0 24.5635 0 25.5053V30.4946C0 31.4365 0.763519 32.2 1.70537 32.2C2.53833 32.2 3.24318 32.8034 3.42802 33.6156C3.56734 34.2277 3.72895 34.8314 3.91196 35.4258C4.15678 36.2209 3.84801 37.0944 3.12755 37.5104C2.31224 37.9811 2.0329 39.0236 2.50362 39.8389L4.99702 44.1576C5.46883 44.9748 6.51378 45.2548 7.33098 44.783C8.05271 44.3663 8.96524 44.5356 9.53241 45.1462C9.95648 45.6027 10.3973 46.0435 10.8538 46.4676C11.4644 47.0348 11.6337 47.9473 11.217 48.669C10.7452 49.4862 11.0252 50.5312 11.8424 51.003L16.1611 53.4964C16.9764 53.9671 18.0189 53.6878 18.4896 52.8725C18.9056 52.152 19.7791 51.8432 20.5742 52.0881C21.1686 52.2711 21.7723 52.4327 22.3845 52.572C23.1967 52.7569 23.8 53.4617 23.8 54.2947C23.8 55.2365 24.5636 56 25.5054 56H30.4947C31.4365 56 32.2 55.2365 32.2 54.2947C32.2 53.4617 32.8034 52.7569 33.6156 52.572C34.2278 52.4327 34.8315 52.2711 35.4258 52.0881C36.2209 51.8433 37.0945 52.152 37.5104 52.8725C37.9811 53.6878 39.0237 53.9671 39.839 53.4964L44.1577 51.003C44.9749 50.5312 45.2549 49.4862 44.7831 48.669C44.3664 47.9473 44.5356 47.0348 45.1462 46.4676C45.6028 46.0435 46.0436 45.6028 46.4677 45.1462C47.0348 44.5356 47.9474 44.3663 48.6691 44.783C49.4863 45.2548 50.5312 44.9748 51.003 44.1576L53.4964 39.8389C53.9671 39.0236 53.6878 37.9811 52.8725 37.5104C52.1521 37.0944 51.8433 36.2209 52.0881 35.4258C52.2711 34.8315 52.4327 34.2277 52.5721 33.6155C52.7569 32.8033 53.4617 32.2 54.2947 32.2C55.2365 32.2 56 31.4365 56 30.4947V25.5053C56 24.5635 55.2365 23.8 54.2947 23.8C53.4617 23.8 52.7569 23.1966 52.5721 22.3844C52.4327 21.7722 52.2711 21.1685 52.0881 20.5742C51.8433 19.7791 52.1521 18.9055 52.8725 18.4896C53.6878 18.0189 53.9671 16.9764 53.4964 16.1611L51.003 11.8423C50.5312 11.0251 49.4863 10.7452 48.6691 11.217C47.9473 11.6337 47.0348 11.4644 46.4676 10.8538C46.0436 10.3972 45.6028 9.95643 45.1462 9.53236C44.5356 8.96519 44.3663 8.05266 44.783 7.33093C45.2548 6.51374 44.9748 5.4688 44.1577 4.99699L39.8389 2.50358C39.0236 2.03286 37.9811 2.31221 37.5104 3.12751C37.0944 3.84797 36.2209 4.15673 35.4258 3.91192C34.8315 3.72891 34.2278 3.5673 33.6156 3.42798C32.8034 3.24314 32.2 2.5383 32.2 1.70535C32.2 0.76351 31.4365 0 30.4947 0H25.5054ZM28 47.6C38.8248 47.6 47.6 38.8248 47.6 28C47.6 17.1752 38.8248 8.4 28 8.4C17.1752 8.4 8.4 17.1752 8.4 28C8.4 38.8248 17.1752 47.6 28 47.6Z" fill="#EF3124"/>
<path d="M33.012 39.6815C33.061 39.9265 33.089 40.1855 33.089 40.4725V47.8706H23.2155V40.4725C23.2155 40.182 23.2435 39.9265 23.289 39.6815C18.4625 37.753 15.05 33.0385 15.05 27.519C15.05 22.1395 18.2945 17.5195 22.9355 15.5V27.519H33.3655V15.5C38.0065 17.5195 41.2476 22.1395 41.2476 27.519C41.2476 33.0385 37.8385 37.7495 33.012 39.6815Z" fill="#EF3124"/>
</svg>
