<svg width="178" height="34" viewBox="0 0 178 34" fill="none" xmlns="http://www.w3.org/2000/svg">
<path d="M50.404 12.58V22.1H48.2254V14.3752H43.9495V22.1H41.771V12.58H50.404Z" fill="white"/>
<path d="M59.6665 18.4688C59.6665 18.496 59.6529 18.6864 59.6259 19.04H54.1186C54.2179 19.4933 54.4524 19.8514 54.8223 20.1144C55.1921 20.3773 55.6522 20.5088 56.2025 20.5088C56.5813 20.5088 56.9151 20.4544 57.2038 20.3456C57.5015 20.2277 57.7766 20.0464 58.0292 19.8016L59.1523 21.0256C58.4667 21.8144 57.4654 22.2088 56.1483 22.2088C55.3274 22.2088 54.6013 22.0501 53.9698 21.7328C53.3383 21.4064 52.8512 20.9576 52.5084 20.3864C52.1656 19.8152 51.9942 19.1669 51.9942 18.4416C51.9942 17.7253 52.1611 17.0816 52.4949 16.5104C52.8377 15.9301 53.3022 15.4813 53.8886 15.164C54.484 14.8376 55.147 14.6744 55.8777 14.6744C56.5904 14.6744 57.2353 14.8285 57.8127 15.1368C58.39 15.445 58.8411 15.8893 59.1658 16.4696C59.4996 17.0408 59.6665 17.7072 59.6665 18.4688ZM55.8912 16.2792C55.4131 16.2792 55.0117 16.4152 54.687 16.6872C54.3622 16.9592 54.1637 17.3309 54.0916 17.8024H57.6774C57.6052 17.34 57.4067 16.9728 57.082 16.7008C56.7572 16.4197 56.3603 16.2792 55.8912 16.2792Z" fill="white"/>
<path d="M61.2845 14.7832H63.3819V17.6392H66.5482V14.7832H68.6591V22.1H66.5482V19.3664H63.3819V22.1H61.2845V14.7832Z" fill="white"/>
<path d="M75.3362 18.292C75.7692 18.428 76.1029 18.6365 76.3375 18.9176C76.581 19.1986 76.7028 19.5341 76.7028 19.924C76.7028 20.3864 76.545 20.7944 76.2292 21.148C75.9135 21.4925 75.4805 21.76 74.9302 21.9504C74.3799 22.1408 73.7575 22.236 73.0629 22.236C72.4946 22.236 71.9353 22.177 71.385 22.0592C70.8347 21.9413 70.3251 21.7645 69.856 21.5288L70.4243 20.0464C71.1911 20.4181 72.039 20.604 72.9682 20.604C73.4643 20.604 73.8522 20.5314 74.1319 20.3864C74.4205 20.2322 74.5649 20.0192 74.5649 19.7472C74.5649 19.5114 74.4656 19.3346 74.2672 19.2168C74.0687 19.0898 73.7801 19.0264 73.4012 19.0264H71.9127V17.7072H73.2117C73.5816 17.7072 73.8658 17.6482 74.0642 17.5304C74.2627 17.4125 74.3619 17.2402 74.3619 17.0136C74.3619 16.7778 74.2356 16.5965 73.983 16.4696C73.7395 16.3426 73.3877 16.2792 72.9276 16.2792C72.224 16.2792 71.4572 16.4469 70.6273 16.7824L70.1131 15.3136C71.1234 14.8693 72.1067 14.6472 73.0629 14.6472C73.7214 14.6472 74.3078 14.7288 74.822 14.892C75.3452 15.0552 75.7556 15.2954 76.0533 15.6128C76.351 15.921 76.4999 16.2837 76.4999 16.7008C76.4999 17.0453 76.3961 17.3581 76.1886 17.6392C75.9812 17.9112 75.697 18.1288 75.3362 18.292Z" fill="white"/>
<path d="M78.4007 12.58H80.5792V18.7816L85.0987 12.58H87.1554V22.1H84.9904V15.912L80.471 22.1H78.4007V12.58Z" fill="white"/>
<path d="M89.3514 14.7832H91.4488V17.6392H94.6151V14.7832H96.726V22.1H94.6151V19.3664H91.4488V22.1H89.3514V14.7832Z" fill="white"/>
<path d="M102.211 22.2088C101.435 22.2088 100.736 22.0501 100.113 21.7328C99.5 21.4064 99.0173 20.9576 98.6655 20.3864C98.3227 19.8152 98.1513 19.1669 98.1513 18.4416C98.1513 17.7162 98.3227 17.068 98.6655 16.4968C99.0173 15.9256 99.5 15.4813 100.113 15.164C100.736 14.8376 101.435 14.6744 102.211 14.6744C102.977 14.6744 103.645 14.8376 104.213 15.164C104.791 15.4813 105.21 15.9392 105.472 16.5376L103.834 17.4216C103.456 16.7506 102.91 16.4152 102.197 16.4152C101.647 16.4152 101.191 16.5965 100.831 16.9592C100.47 17.3218 100.289 17.816 100.289 18.4416C100.289 19.0672 100.47 19.5613 100.831 19.924C101.191 20.2866 101.647 20.468 102.197 20.468C102.919 20.468 103.465 20.1325 103.834 19.4616L105.472 20.3592C105.21 20.9394 104.791 21.3928 104.213 21.7192C103.645 22.0456 102.977 22.2088 102.211 22.2088Z" fill="white"/>
<path d="M112.844 16.524H110.382V22.1H108.284V16.524H105.821V14.7832H112.844V16.524Z" fill="white"/>
<path d="M118.259 14.6744C118.935 14.6744 119.549 14.833 120.099 15.1504C120.658 15.4586 121.096 15.8984 121.412 16.4696C121.727 17.0317 121.885 17.689 121.885 18.4416C121.885 19.1941 121.727 19.856 121.412 20.4272C121.096 20.9893 120.658 21.429 120.099 21.7464C119.549 22.0546 118.935 22.2088 118.259 22.2088C117.33 22.2088 116.599 21.9141 116.067 21.3248V24.7384H113.956V14.7832H115.972V15.6264C116.495 14.9917 117.258 14.6744 118.259 14.6744ZM117.894 20.468C118.435 20.468 118.877 20.2866 119.22 19.924C119.571 19.5522 119.747 19.0581 119.747 18.4416C119.747 17.825 119.571 17.3354 119.22 16.9728C118.877 16.601 118.435 16.4152 117.894 16.4152C117.352 16.4152 116.906 16.601 116.554 16.9728C116.211 17.3354 116.04 17.825 116.04 18.4416C116.04 19.0581 116.211 19.5522 116.554 19.924C116.906 20.2866 117.352 20.468 117.894 20.468Z" fill="white"/>
<path d="M130.46 14.7832L127.172 22.5488C126.838 23.392 126.423 23.9858 125.927 24.3304C125.44 24.6749 124.849 24.8472 124.154 24.8472C123.775 24.8472 123.401 24.7882 123.031 24.6704C122.661 24.5525 122.359 24.3893 122.125 24.1808L122.896 22.6712C123.058 22.8162 123.243 22.9296 123.451 23.0112C123.667 23.0928 123.879 23.1336 124.087 23.1336C124.375 23.1336 124.61 23.061 124.79 22.916C124.971 22.78 125.133 22.5488 125.277 22.2224L125.304 22.1544L122.152 14.7832H124.33L126.373 19.7472L128.43 14.7832H130.46Z" fill="white"/>
<path d="M138.582 22.1V17.7208L136.404 21.3928H135.511L133.386 17.7072V22.1H131.478V14.7832H133.684L136.011 19.0128L138.487 14.7832H140.463L140.49 22.1H138.582Z" fill="white"/>
<path d="M149.589 18.4688C149.589 18.496 149.575 18.6864 149.548 19.04H144.041C144.14 19.4933 144.375 19.8514 144.745 20.1144C145.115 20.3773 145.575 20.5088 146.125 20.5088C146.504 20.5088 146.838 20.4544 147.126 20.3456C147.424 20.2277 147.699 20.0464 147.952 19.8016L149.075 21.0256C148.389 21.8144 147.388 22.2088 146.071 22.2088C145.25 22.2088 144.524 22.0501 143.892 21.7328C143.261 21.4064 142.774 20.9576 142.431 20.3864C142.088 19.8152 141.917 19.1669 141.917 18.4416C141.917 17.7253 142.084 17.0816 142.417 16.5104C142.76 15.9301 143.225 15.4813 143.811 15.164C144.406 14.8376 145.069 14.6744 145.8 14.6744C146.513 14.6744 147.158 14.8285 147.735 15.1368C148.312 15.445 148.764 15.8893 149.088 16.4696C149.422 17.0408 149.589 17.7072 149.589 18.4688ZM145.814 16.2792C145.336 16.2792 144.934 16.4152 144.609 16.6872C144.285 16.9592 144.086 17.3309 144.014 17.8024H147.6C147.528 17.34 147.329 16.9728 147.004 16.7008C146.68 16.4197 146.283 16.2792 145.814 16.2792Z" fill="white"/>
<path d="M151.207 14.7832H153.304V17.6392H156.471V14.7832H158.582V22.1H156.471V19.3664H153.304V22.1H151.207V14.7832Z" fill="white"/>
<path d="M166.718 16.524H164.256V22.1H162.158V16.524H159.696V14.7832H166.718V16.524Z" fill="white"/>
<path d="M171.673 17.1224C172.62 17.1314 173.337 17.3445 173.824 17.7616C174.312 18.1786 174.555 18.777 174.555 19.5568C174.555 20.3728 174.28 21.0029 173.73 21.4472C173.179 21.8914 172.399 22.1136 171.389 22.1136L167.844 22.1V14.7832H169.941V17.1224H171.673ZM175.34 14.7832H177.437V22.1H175.34V14.7832ZM171.199 20.604C171.605 20.613 171.917 20.5269 172.133 20.3456C172.35 20.1642 172.458 19.8922 172.458 19.5296C172.458 19.176 172.35 18.9176 172.133 18.7544C171.926 18.5912 171.614 18.505 171.199 18.496L169.941 18.4824V20.604H171.199Z" fill="white"/>
<path fill-rule="evenodd" clip-rule="evenodd" d="M15.4128 0C14.8407 0 14.377 0.463744 14.377 1.0358C14.377 1.5414 14.0109 1.9693 13.5181 2.08216C13.1504 2.16635 12.7878 2.26392 12.4309 2.37433C11.9495 2.52321 11.4202 2.33596 11.1692 1.89906C10.8852 1.40458 10.2533 1.23526 9.76003 1.52147L7.15605 3.03251C6.66045 3.3201 6.49054 3.95421 6.77596 4.45107C7.02789 4.88966 6.92527 5.44312 6.55558 5.78831C6.2798 6.04581 6.01354 6.31346 5.75739 6.59068C5.41565 6.9605 4.8639 7.0629 4.42837 6.81017C3.93549 6.52416 3.304 6.69336 3.02016 7.1875L1.51102 9.81466C1.22713 10.3089 1.39613 10.9396 1.88909 11.2257C2.32476 11.4785 2.51147 12.0071 2.36383 12.4887C2.25255 12.8517 2.15436 13.2204 2.06978 13.5943C1.95877 14.0852 1.53297 14.45 1.02971 14.45C0.461015 14.45 0 14.911 0 15.4797V18.5203C0 19.089 0.461006 19.55 1.02969 19.55C1.53294 19.55 1.95874 19.9147 2.06975 20.4056C2.15431 20.7795 2.2525 21.1482 2.36376 21.5111C2.5114 21.9927 2.32468 22.5215 1.88897 22.7743C1.39597 23.0604 1.22696 23.6912 1.51087 24.1854L3.01993 26.8125C3.3038 27.3066 3.93531 27.4758 4.42822 27.1898C4.86377 26.9371 5.41555 27.0395 5.75731 27.4093C6.01357 27.6866 6.27994 27.9544 6.55584 28.212C6.92549 28.5571 7.0281 29.1105 6.7762 29.5491C6.49083 30.0458 6.66071 30.6799 7.15624 30.9674L9.76044 32.4786C10.2536 32.7648 10.8855 32.5955 11.1695 32.101C11.4204 31.6642 11.9497 31.4769 12.431 31.6258C12.788 31.7362 13.1505 31.8337 13.5181 31.9179C14.0109 32.0308 14.377 32.4587 14.377 32.9642C14.377 33.5363 14.8407 34 15.4127 34H18.4154C18.9875 34 19.4512 33.5363 19.4512 32.9642C19.4512 32.4586 19.8172 32.0308 20.31 31.9179C20.6777 31.8337 21.0403 31.7361 21.3973 31.6257C21.8787 31.4768 22.408 31.664 22.659 32.101C22.943 32.5954 23.575 32.7647 24.0682 32.4785L26.6721 30.9675C27.1678 30.6799 27.3377 30.0458 27.0522 29.5489C26.8003 29.1103 26.9029 28.5568 27.2726 28.2116C27.5484 27.9541 27.8146 27.6865 28.0708 27.4093C28.4126 27.0394 28.9644 26.9369 29.4 27.1897C29.893 27.4758 30.5246 27.3066 30.8085 26.8123L32.3174 24.1856C32.6014 23.6912 32.4323 23.0603 31.9392 22.7742C31.5035 22.5213 31.3167 21.9925 31.4644 21.5108C31.5756 21.148 31.6737 20.7794 31.7583 20.4057C31.8693 19.9148 32.2951 19.55 32.7985 19.55C33.3672 19.55 33.8283 19.0889 33.8283 18.5201V15.4798C33.8283 14.911 33.3672 14.45 32.7984 14.45C32.2951 14.45 31.8693 14.0852 31.7582 13.5942C31.6737 13.2204 31.5755 12.8519 31.4643 12.4891C31.3166 12.0074 31.5034 11.4786 31.9391 11.2257C32.4322 10.9396 32.6012 10.3088 32.3173 9.8145L30.8083 7.18763C30.5244 6.69342 29.8928 6.52419 29.3999 6.81025C28.9643 7.06301 28.4125 6.9606 28.0707 6.59071C27.8146 6.31363 27.5485 6.0461 27.2729 5.78872C26.9031 5.44345 26.8005 4.88989 27.0525 4.45123C27.338 3.95427 27.168 3.32004 26.6723 3.03239L24.0686 1.5215C23.5753 1.23527 22.9433 1.4046 22.6593 1.89912C22.4083 2.33607 21.8789 2.52333 21.3975 2.37443C21.0404 2.264 20.6778 2.1664 20.3101 2.08219C19.8172 1.96933 19.4512 1.54142 19.4512 1.03582C19.4512 0.463751 18.9874 0 18.4154 0H15.4128ZM16.9143 28.9C23.4533 28.9 28.7542 23.5722 28.7542 17C28.7542 10.4278 23.4533 5.10002 16.9143 5.10002C10.3753 5.10002 5.07437 10.4278 5.07437 17C5.07437 23.5722 10.3753 28.9 16.9143 28.9Z" fill="#EF3124"/>
<path d="M19.9417 24.0924C19.9713 24.2411 19.9882 24.3984 19.9882 24.5726V29.0644H14.0239V24.5726C14.0239 24.3963 14.0408 24.2411 14.0683 24.0924C11.1527 22.9215 9.09131 20.0591 9.09131 16.708C9.09131 13.4419 11.0512 10.6369 13.8548 9.41077V16.708H20.1553V9.41077C22.9588 10.6369 24.9166 13.4419 24.9166 16.708C24.9166 20.0591 22.8573 22.9194 19.9417 24.0924Z" fill="#EF3124"/>
</svg>
